<svg xmlns="http://www.w3.org/2000/svg" width="32" height="33" fill="none"><path fill="url(#a)" d="M24.52 13.443c-.075.51-.411 1.204-.797 1.807a3.365 3.365 0 0 1-2.146 1.478l-3.897.815a2.998 2.998 0 0 0-1.621.936l-2.556 2.857c-.48.537-.816.409-.816-.312-.006.027-1.268 3.283 2.078 5.213 1.285.742 3.136.475 4.421-.266l6.812-3.93a10.31 10.31 0 0 0 4.944-6.832c.024-.114.042-.228.062-.342l-6.485-1.424Z"/><path fill="url(#b)" d="M22.753 9.518c1.285.741 1.81 1.845 1.81 3.328 0 .202-.015.4-.044.597l2.745 1.178 3.74.245c.479-2.771-.46-5.624-2.142-7.892a15.948 15.948 0 0 0-4.854-4.317A16.105 16.105 0 0 0 19.103.803L17.235 3.22l-.59 2.776 6.107 3.522Z"/><path fill="url(#c)" d="M.784 11.552a16.869 16.869 0 0 1 .552-1.428c1.177-2.69 3.447-4.483 6.239-5.398a10.34 10.34 0 0 1 8.385.874l.686.396L19.102.803C11.291-.757 3.307 3.833.794 11.522l-.01.03Z"/><path fill="url(#d)" d="M18.92 25.97a4.158 4.158 0 0 1-4.65-.336l-2.26 1.555-1.95 3.149c2.163 1.8 4.972 2.378 7.779 2.056a15.962 15.962 0 0 0 6.17-2.04 16.089 16.089 0 0 0 4.06-3.318l-1.163-2.823-1.88-1.765-6.106 3.522Z"/><path fill="url(#e)" d="M14.27 25.634a4.149 4.149 0 0 1-1.583-3.259V11.572c0-.603.178-.706.701-.404-.806-.465-2.668-2.061-4.967-.735-1.285.742-2.344 2.379-2.344 3.862v7.858c0 2.939 1.522 6.004 3.717 7.96.087.078.177.15.266.225l4.21-4.704Z"/><path fill="url(#f)" d="M27.91 5.812a16.903 16.903 0 0 1 .962 1.192 10.302 10.302 0 0 1-3.16 15.048l-.686.396 3.042 4.588c5.259-5.978 5.272-15.18-.136-21.2a1.782 1.782 0 0 0-.021-.024Z"/><path fill="url(#g)" d="M6.344 14.294A4.15 4.15 0 0 1 8.96 10.44l-.217-2.734-1.524-3.127a10.312 10.312 0 0 0-5.904 5.568A15.924 15.924 0 0 0 0 16.505c0 1.836.303 3.569.846 5.172l3.028.406 2.47-.744v-7.045Z"/><path fill="url(#h)" d="M8.96 10.44a4.158 4.158 0 0 1 3.616.26l.111.063 8.896 5.131c.623.36.567.714-.138.862l.513-.108a3.363 3.363 0 0 0 1.764-.989 4.09 4.09 0 0 0 1.108-2.813 4.15 4.15 0 0 0-2.077-3.595L15.94 5.322a10.327 10.327 0 0 0-8.395-.861c-.11.036-.219.078-.327.118l1.741 5.86Z"/><path fill="url(#i)" d="M19.322 32.152a16.916 16.916 0 0 1-1.514.237A10.318 10.318 0 0 1 6.343 22.13v-.792l-5.497.338c2.553 7.539 10.523 12.151 18.445 10.482l.031-.007Z"/><defs><linearGradient id="a" x1="20.06" x2="23.207" y1="24.27" y2="13.307" gradientUnits="userSpaceOnUse"><stop stop-color="#1724C9"/><stop offset="1" stop-color="#1C64F2"/></linearGradient><linearGradient id="b" x1="27.309" x2="19.03" y1="10.9" y2="2.65" gradientUnits="userSpaceOnUse"><stop stop-color="#1C64F2"/><stop offset="1" stop-color="#0092FF"/></linearGradient><linearGradient id="c" x1="16.165" x2="3.674" y1="5.521" y2="6.31" gradientUnits="userSpaceOnUse"><stop stop-color="#0092FF"/><stop offset="1" stop-color="#45B2FF"/></linearGradient><linearGradient id="d" x1="15.32" x2="26.537" y1="29.163" y2="26.136" gradientUnits="userSpaceOnUse"><stop stop-color="#1C64F2"/><stop offset="1" stop-color="#0092FF"/></linearGradient><linearGradient id="e" x1="7.269" x2="15.232" y1="16.183" y2="24.435" gradientUnits="userSpaceOnUse"><stop stop-color="#1724C9"/><stop offset="1" stop-color="#1C64F2"/></linearGradient><linearGradient id="f" x1="25.451" x2="31.007" y1="22.136" y2="10.934" gradientUnits="userSpaceOnUse"><stop stop-color="#0092FF"/><stop offset="1" stop-color="#45B2FF"/></linearGradient><linearGradient id="g" x1="5.364" x2="2.391" y1="9.631" y2="20.806" gradientUnits="userSpaceOnUse"><stop stop-color="#1C64F2"/><stop offset="1" stop-color="#0092FF"/></linearGradient><linearGradient id="h" x1="20.543" x2="9.678" y1="9.099" y2="11.804" gradientUnits="userSpaceOnUse"><stop stop-color="#1724C9"/><stop offset="1" stop-color="#1C64F2"/></linearGradient><linearGradient id="i" x1="6.407" x2="13.333" y1="21.857" y2="32.275" gradientUnits="userSpaceOnUse"><stop stop-color="#0092FF"/><stop offset="1" stop-color="#45B2FF"/></linearGradient></defs></svg>